<svg xmlns="http://www.w3.org/2000/svg" xmlns:xlink="http://www.w3.org/1999/xlink" width="150" zoomAndPan="magnify" viewBox="0 0 112.5 30.000001" height="40" preserveAspectRatio="xMidYMid meet" version="1.0"><defs><g/></defs><g fill="#8c52ff" fill-opacity="1"><g transform="translate(5.377216, 20.048389)"><g><path d="M 5.703125 0 L 3.640625 0 L 3.640625 -4.078125 L 0.046875 -10.40625 L 2.25 -10.40625 L 4.640625 -6.3125 L 4.8125 -6.3125 L 7.140625 -10.40625 L 9.296875 -10.40625 L 5.703125 -4.078125 Z M 5.703125 0 "/></g></g></g><g fill="#f4f6fc" fill-opacity="1"><g transform="translate(14.70655, 20.048389)"><g><path d="M 5.515625 0.15625 C 4.078125 0.15625 3.007812 -0.179688 2.3125 -0.859375 C 1.625 -1.546875 1.28125 -2.5625 1.28125 -3.90625 L 1.28125 -10.40625 L 3.296875 -10.40625 L 3.296875 -3.921875 C 3.296875 -3.160156 3.476562 -2.585938 3.84375 -2.203125 C 4.21875 -1.828125 4.773438 -1.640625 5.515625 -1.640625 C 6.992188 -1.640625 7.734375 -2.398438 7.734375 -3.921875 L 7.734375 -10.40625 L 9.75 -10.40625 L 9.75 -3.90625 C 9.75 -2.5625 9.398438 -1.546875 8.703125 -0.859375 C 8.015625 -0.179688 6.953125 0.15625 5.515625 0.15625 Z M 5.515625 0.15625 "/></g></g></g><g fill="#f4f6fc" fill-opacity="1"><g transform="translate(25.733085, 20.048389)"><g><path d="M 5.09375 -10.40625 C 6.78125 -10.40625 8.066406 -9.96875 8.953125 -9.09375 C 9.847656 -8.21875 10.296875 -6.921875 10.296875 -5.203125 C 10.296875 -3.484375 9.847656 -2.1875 8.953125 -1.3125 C 8.066406 -0.4375 6.78125 0 5.09375 0 L 1.359375 0 L 1.359375 -10.40625 Z M 4.96875 -1.734375 C 6.039062 -1.734375 6.84375 -2.003906 7.375 -2.546875 C 7.90625 -3.097656 8.171875 -3.984375 8.171875 -5.203125 C 8.171875 -6.421875 7.90625 -7.300781 7.375 -7.84375 C 6.84375 -8.394531 6.039062 -8.671875 4.96875 -8.671875 L 3.40625 -8.671875 L 3.40625 -1.734375 Z M 4.96875 -1.734375 "/></g></g></g><g fill="#f4f6fc" fill-opacity="1"><g transform="translate(36.852106, 20.048389)"><g><path d="M 3.40625 0 L 1.359375 0 L 1.359375 -10.40625 L 3.40625 -10.40625 Z M 3.40625 0 "/></g></g></g><g fill="#f4f6fc" fill-opacity="1"><g transform="translate(41.618414, 20.048389)"><g><path d="M 5.375 -10.40625 C 6.113281 -10.40625 6.75 -10.269531 7.28125 -10 C 7.8125 -9.726562 8.210938 -9.34375 8.484375 -8.84375 C 8.753906 -8.351562 8.890625 -7.785156 8.890625 -7.140625 C 8.890625 -6.492188 8.753906 -5.925781 8.484375 -5.4375 C 8.210938 -4.945312 7.8125 -4.5625 7.28125 -4.28125 C 6.75 -4.007812 6.113281 -3.875 5.375 -3.875 L 3.40625 -3.875 L 3.40625 0 L 1.359375 0 L 1.359375 -10.40625 Z M 5.109375 -5.515625 C 6.242188 -5.515625 6.8125 -6.054688 6.8125 -7.140625 C 6.8125 -8.234375 6.242188 -8.78125 5.109375 -8.78125 L 3.40625 -8.78125 L 3.40625 -5.515625 Z M 5.109375 -5.515625 "/></g></g></g><g fill="#8c52ff" fill-opacity="1"><g transform="translate(51.112597, 20.048389)"><g/></g></g><g fill="#8c52ff" fill-opacity="1"><g transform="translate(54.548613, 20.048389)"><g><path d="M 5.515625 0.15625 C 4.078125 0.15625 3.007812 -0.179688 2.3125 -0.859375 C 1.625 -1.546875 1.28125 -2.5625 1.28125 -3.90625 L 1.28125 -10.40625 L 3.296875 -10.40625 L 3.296875 -3.921875 C 3.296875 -3.160156 3.476562 -2.585938 3.84375 -2.203125 C 4.21875 -1.828125 4.773438 -1.640625 5.515625 -1.640625 C 6.992188 -1.640625 7.734375 -2.398438 7.734375 -3.921875 L 7.734375 -10.40625 L 9.75 -10.40625 L 9.75 -3.90625 C 9.75 -2.5625 9.398438 -1.546875 8.703125 -0.859375 C 8.015625 -0.179688 6.953125 0.15625 5.515625 0.15625 Z M 5.515625 0.15625 "/></g></g></g><g fill="#f4f6fc" fill-opacity="1"><g transform="translate(65.567939, 20.048389)"><g><path d="M 5.375 -10.40625 C 6.113281 -10.40625 6.75 -10.269531 7.28125 -10 C 7.8125 -9.726562 8.210938 -9.34375 8.484375 -8.84375 C 8.753906 -8.351562 8.890625 -7.785156 8.890625 -7.140625 C 8.890625 -6.492188 8.753906 -5.925781 8.484375 -5.4375 C 8.210938 -4.945312 7.8125 -4.5625 7.28125 -4.28125 C 6.75 -4.007812 6.113281 -3.875 5.375 -3.875 L 3.40625 -3.875 L 3.40625 0 L 1.359375 0 L 1.359375 -10.40625 Z M 5.109375 -5.515625 C 6.242188 -5.515625 6.8125 -6.054688 6.8125 -7.140625 C 6.8125 -8.234375 6.242188 -8.78125 5.109375 -8.78125 L 3.40625 -8.78125 L 3.40625 -5.515625 Z M 5.109375 -5.515625 "/></g></g></g><g fill="#f4f6fc" fill-opacity="1"><g transform="translate(75.072101, 20.048389)"><g><path d="M 1.359375 0 L 1.359375 -10.40625 L 5.53125 -10.40625 C 6.601562 -10.40625 7.414062 -10.15625 7.96875 -9.65625 C 8.519531 -9.164062 8.796875 -8.484375 8.796875 -7.609375 C 8.796875 -6.972656 8.632812 -6.453125 8.3125 -6.046875 C 7.988281 -5.648438 7.507812 -5.34375 6.875 -5.125 L 6.875 -4.984375 C 7.207031 -4.835938 7.472656 -4.625 7.671875 -4.34375 C 7.867188 -4.0625 8.0625 -3.648438 8.25 -3.109375 L 9.28125 0 L 7.171875 0 L 6.15625 -3.109375 C 6.050781 -3.421875 5.929688 -3.660156 5.796875 -3.828125 C 5.671875 -4.003906 5.503906 -4.128906 5.296875 -4.203125 C 5.097656 -4.285156 4.835938 -4.328125 4.515625 -4.328125 L 3.40625 -4.328125 L 3.40625 0 Z M 5.28125 -5.96875 C 6.28125 -5.96875 6.78125 -6.429688 6.78125 -7.359375 C 6.78125 -8.304688 6.28125 -8.78125 5.28125 -8.78125 L 3.40625 -8.78125 L 3.40625 -5.96875 Z M 5.28125 -5.96875 "/></g></g></g><g fill="#f4f6fc" fill-opacity="1"><g transform="translate(84.796799, 20.048389)"><g><path d="M 3.40625 -4.5625 L 3.40625 -1.71875 L 8.375 -1.71875 L 8.375 0 L 1.359375 0 L 1.359375 -10.40625 L 8.265625 -10.40625 L 8.265625 -8.6875 L 3.40625 -8.6875 L 3.40625 -6.25 L 7.65625 -6.25 L 7.65625 -4.5625 Z M 3.40625 -4.5625 "/></g></g></g><g fill="#f4f6fc" fill-opacity="1"><g transform="translate(93.738968, 20.048389)"><g><path d="M 8.34375 -10.40625 L 8.34375 -8.671875 L 5.34375 -8.671875 L 5.34375 0 L 3.28125 0 L 3.28125 -8.671875 L 0.28125 -8.671875 L 0.28125 -10.40625 Z M 8.34375 -10.40625 "/></g></g></g><g fill="#f4f6fc" fill-opacity="1"><g transform="translate(102.361007, 20.048389)"><g><path d="M 3.40625 0 L 1.359375 0 L 1.359375 -10.40625 L 3.40625 -10.40625 Z M 3.40625 0 "/></g></g></g></svg>